<?xml version="1.0" encoding="utf-8" standalone="no"?>
<!DOCTYPE svg PUBLIC "-//W3C//DTD SVG 1.1//EN"
  "http://www.w3.org/Graphics/SVG/1.1/DTD/svg11.dtd">
<!-- Created with matplotlib (https://matplotlib.org/) -->
<svg height="345.6pt" version="1.1" viewBox="0 0 460.8 345.6" width="460.8pt" xmlns="http://www.w3.org/2000/svg" xmlns:xlink="http://www.w3.org/1999/xlink">
 <defs>
  <style type="text/css">
*{stroke-linecap:butt;stroke-linejoin:round;}
  </style>
 </defs>
 <g id="figure_1">
  <g id="patch_1">
   <path d="M 0 345.6 
L 460.8 345.6 
L 460.8 0 
L 0 0 
z
" style="fill:#ffffff;"/>
  </g>
  <g id="axes_1">
   <g id="patch_2">
    <path d="M 57.6 307.584 
L 414.72 307.584 
L 414.72 41.472 
L 57.6 41.472 
z
" style="fill:#ffffff;"/>
   </g>
   <g id="PathCollection_1">
    <defs>
     <path d="M 0 3 
C 0.795609 3 1.55874 2.683901 2.12132 2.12132 
C 2.683901 1.55874 3 0.795609 3 0 
C 3 -0.795609 2.683901 -1.55874 2.12132 -2.12132 
C 1.55874 -2.683901 0.795609 -3 0 -3 
C -0.795609 -3 -1.55874 -2.683901 -2.12132 -2.12132 
C -2.683901 -1.55874 -3 -0.795609 -3 0 
C -3 0.795609 -2.683901 1.55874 -2.12132 2.12132 
C -1.55874 2.683901 -0.795609 3 0 3 
z
" id="mfdf196f35a" style="stroke:#1f77b4;"/>
    </defs>
    <g clip-path="url(#p6c74630068)">
     <use style="fill:#1f77b4;stroke:#1f77b4;" x="318.557101" xlink:href="#mfdf196f35a" y="183.783118"/>
     <use style="fill:#1f77b4;stroke:#1f77b4;" x="136.459508" xlink:href="#mfdf196f35a" y="94.423357"/>
     <use style="fill:#1f77b4;stroke:#1f77b4;" x="119.980088" xlink:href="#mfdf196f35a" y="142.932942"/>
     <use style="fill:#1f77b4;stroke:#1f77b4;" x="353.987854" xlink:href="#mfdf196f35a" y="223.356726"/>
     <use style="fill:#1f77b4;stroke:#1f77b4;" x="303.725623" xlink:href="#mfdf196f35a" y="56.126317"/>
     <use style="fill:#1f77b4;stroke:#1f77b4;" x="186.721739" xlink:href="#mfdf196f35a" y="129.528978"/>
     <use style="fill:#1f77b4;stroke:#1f77b4;" x="237.807942" xlink:href="#mfdf196f35a" y="135.911818"/>
     <use style="fill:#1f77b4;stroke:#1f77b4;" x="382.82684" xlink:href="#mfdf196f35a" y="171.655722"/>
     <use style="fill:#1f77b4;stroke:#1f77b4;" x="243.575739" xlink:href="#mfdf196f35a" y="103.997617"/>
     <use style="fill:#1f77b4;stroke:#1f77b4;" x="142.227305" xlink:href="#mfdf196f35a" y="254.632643"/>
     <use style="fill:#1f77b4;stroke:#1f77b4;" x="203.20116" xlink:href="#mfdf196f35a" y="153.145486"/>
     <use style="fill:#1f77b4;stroke:#1f77b4;" x="197.433363" xlink:href="#mfdf196f35a" y="223.356726"/>
     <use style="fill:#1f77b4;stroke:#1f77b4;" x="386.122724" xlink:href="#mfdf196f35a" y="117.401581"/>
     <use style="fill:#1f77b4;stroke:#1f77b4;" x="165.298493" xlink:href="#mfdf196f35a" y="134.63525"/>
     <use style="fill:#1f77b4;stroke:#1f77b4;" x="398.482289" xlink:href="#mfdf196f35a" y="162.719746"/>
     <use style="fill:#1f77b4;stroke:#1f77b4;" x="328.444753" xlink:href="#mfdf196f35a" y="111.657025"/>
     <use style="fill:#1f77b4;stroke:#1f77b4;" x="297.957826" xlink:href="#mfdf196f35a" y="66.977145"/>
     <use style="fill:#1f77b4;stroke:#1f77b4;" x="382.002869" xlink:href="#mfdf196f35a" y="289.099979"/>
     <use style="fill:#1f77b4;stroke:#1f77b4;" x="151.290986" xlink:href="#mfdf196f35a" y="57.402885"/>
     <use style="fill:#1f77b4;stroke:#1f77b4;" x="241.927797" xlink:href="#mfdf196f35a" y="114.848445"/>
     <use style="fill:#1f77b4;stroke:#1f77b4;" x="395.186405" xlink:href="#mfdf196f35a" y="102.082765"/>
     <use style="fill:#1f77b4;stroke:#1f77b4;" x="228.744261" xlink:href="#mfdf196f35a" y="53.573181"/>
     <use style="fill:#1f77b4;stroke:#1f77b4;" x="108.444493" xlink:href="#mfdf196f35a" y="244.420099"/>
     <use style="fill:#1f77b4;stroke:#1f77b4;" x="371.291246" xlink:href="#mfdf196f35a" y="164.634598"/>
     <use style="fill:#1f77b4;stroke:#1f77b4;" x="234.512058" xlink:href="#mfdf196f35a" y="278.887435"/>
     <use style="fill:#1f77b4;stroke:#1f77b4;" x="259.231188" xlink:href="#mfdf196f35a" y="269.313175"/>
     <use style="fill:#1f77b4;stroke:#1f77b4;" x="332.564608" xlink:href="#mfdf196f35a" y="97.614777"/>
     <use style="fill:#1f77b4;stroke:#1f77b4;" x="207.321015" xlink:href="#mfdf196f35a" y="64.424009"/>
     <use style="fill:#1f77b4;stroke:#1f77b4;" x="252.63942" xlink:href="#mfdf196f35a" y="275.057731"/>
     <use style="fill:#1f77b4;stroke:#1f77b4;" x="368.819333" xlink:href="#mfdf196f35a" y="279.525719"/>
     <use style="fill:#1f77b4;stroke:#1f77b4;" x="254.287362" xlink:href="#mfdf196f35a" y="81.657677"/>
     <use style="fill:#1f77b4;stroke:#1f77b4;" x="244.39971" xlink:href="#mfdf196f35a" y="153.145486"/>
     <use style="fill:#1f77b4;stroke:#1f77b4;" x="91.965073" xlink:href="#mfdf196f35a" y="266.121755"/>
     <use style="fill:#1f77b4;stroke:#1f77b4;" x="155.410841" xlink:href="#mfdf196f35a" y="186.974538"/>
     <use style="fill:#1f77b4;stroke:#1f77b4;" x="384.474782" xlink:href="#mfdf196f35a" y="188.88939"/>
     <use style="fill:#1f77b4;stroke:#1f77b4;" x="227.096319" xlink:href="#mfdf196f35a" y="253.994359"/>
     <use style="fill:#1f77b4;stroke:#1f77b4;" x="154.58687" xlink:href="#mfdf196f35a" y="213.782466"/>
     <use style="fill:#1f77b4;stroke:#1f77b4;" x="147.995102" xlink:href="#mfdf196f35a" y="295.482819"/>
     <use style="fill:#1f77b4;stroke:#1f77b4;" x="88.669189" xlink:href="#mfdf196f35a" y="110.380457"/>
     <use style="fill:#1f77b4;stroke:#1f77b4;" x="157.882754" xlink:href="#mfdf196f35a" y="245.696667"/>
     <use style="fill:#1f77b4;stroke:#1f77b4;" x="371.291246" xlink:href="#mfdf196f35a" y="107.189037"/>
     <use style="fill:#1f77b4;stroke:#1f77b4;" x="90.317131" xlink:href="#mfdf196f35a" y="94.423357"/>
     <use style="fill:#1f77b4;stroke:#1f77b4;" x="153.762899" xlink:href="#mfdf196f35a" y="103.359333"/>
     <use style="fill:#1f77b4;stroke:#1f77b4;" x="259.231188" xlink:href="#mfdf196f35a" y="253.356075"/>
     <use style="fill:#1f77b4;stroke:#1f77b4;" x="332.564608" xlink:href="#mfdf196f35a" y="119.316433"/>
     <use style="fill:#1f77b4;stroke:#1f77b4;" x="174.362174" xlink:href="#mfdf196f35a" y="183.783118"/>
     <use style="fill:#1f77b4;stroke:#1f77b4;" x="364.699478" xlink:href="#mfdf196f35a" y="169.74087"/>
     <use style="fill:#1f77b4;stroke:#1f77b4;" x="299.605768" xlink:href="#mfdf196f35a" y="59.317737"/>
     <use style="fill:#1f77b4;stroke:#1f77b4;" x="180.953942" xlink:href="#mfdf196f35a" y="78.466257"/>
     <use style="fill:#1f77b4;stroke:#1f77b4;" x="333.388579" xlink:href="#mfdf196f35a" y="185.69797"/>
     <use style="fill:#1f77b4;stroke:#1f77b4;" x="130.691711" xlink:href="#mfdf196f35a" y="171.017438"/>
     <use style="fill:#1f77b4;stroke:#1f77b4;" x="274.886637" xlink:href="#mfdf196f35a" y="104.635901"/>
     <use style="fill:#1f77b4;stroke:#1f77b4;" x="99.380812" xlink:href="#mfdf196f35a" y="137.188386"/>
     <use style="fill:#1f77b4;stroke:#1f77b4;" x="391.890521" xlink:href="#mfdf196f35a" y="84.210813"/>
     <use style="fill:#1f77b4;stroke:#1f77b4;" x="207.321015" xlink:href="#mfdf196f35a" y="95.061641"/>
     <use style="fill:#1f77b4;stroke:#1f77b4;" x="314.437246" xlink:href="#mfdf196f35a" y="114.210161"/>
     <use style="fill:#1f77b4;stroke:#1f77b4;" x="73.837711" xlink:href="#mfdf196f35a" y="169.74087"/>
     <use style="fill:#1f77b4;stroke:#1f77b4;" x="367.171391" xlink:href="#mfdf196f35a" y="256.547495"/>
     <use style="fill:#1f77b4;stroke:#1f77b4;" x="384.474782" xlink:href="#mfdf196f35a" y="230.377851"/>
     <use style="fill:#1f77b4;stroke:#1f77b4;" x="298.781797" xlink:href="#mfdf196f35a" y="249.526371"/>
    </g>
   </g>
   <g id="matplotlib.axis_1">
    <g id="xtick_1">
     <g id="line2d_1">
      <defs>
       <path d="M 0 0 
L 0 3.5 
" id="ma07d1d86d7" style="stroke:#000000;stroke-width:0.8;"/>
      </defs>
      <g>
       <use style="stroke:#000000;stroke-width:0.8;" x="69.717856" xlink:href="#ma07d1d86d7" y="307.584"/>
      </g>
     </g>
     <g id="text_1">
      <!-- 0 -->
      <defs>
       <path d="M 31.78125 66.40625 
Q 24.171875 66.40625 20.328125 58.90625 
Q 16.5 51.421875 16.5 36.375 
Q 16.5 21.390625 20.328125 13.890625 
Q 24.171875 6.390625 31.78125 6.390625 
Q 39.453125 6.390625 43.28125 13.890625 
Q 47.125 21.390625 47.125 36.375 
Q 47.125 51.421875 43.28125 58.90625 
Q 39.453125 66.40625 31.78125 66.40625 
z
M 31.78125 74.21875 
Q 44.046875 74.21875 50.515625 64.515625 
Q 56.984375 54.828125 56.984375 36.375 
Q 56.984375 17.96875 50.515625 8.265625 
Q 44.046875 -1.421875 31.78125 -1.421875 
Q 19.53125 -1.421875 13.0625 8.265625 
Q 6.59375 17.96875 6.59375 36.375 
Q 6.59375 54.828125 13.0625 64.515625 
Q 19.53125 74.21875 31.78125 74.21875 
z
" id="DejaVuSans-48"/>
      </defs>
      <g transform="translate(66.536606 322.182437)scale(0.1 -0.1)">
       <use xlink:href="#DejaVuSans-48"/>
      </g>
     </g>
    </g>
    <g id="xtick_2">
     <g id="line2d_2">
      <g>
       <use style="stroke:#000000;stroke-width:0.8;" x="110.916406" xlink:href="#ma07d1d86d7" y="307.584"/>
      </g>
     </g>
     <g id="text_2">
      <!-- 50 -->
      <defs>
       <path d="M 10.796875 72.90625 
L 49.515625 72.90625 
L 49.515625 64.59375 
L 19.828125 64.59375 
L 19.828125 46.734375 
Q 21.96875 47.46875 24.109375 47.828125 
Q 26.265625 48.1875 28.421875 48.1875 
Q 40.625 48.1875 47.75 41.5 
Q 54.890625 34.8125 54.890625 23.390625 
Q 54.890625 11.625 47.5625 5.09375 
Q 40.234375 -1.421875 26.90625 -1.421875 
Q 22.3125 -1.421875 17.546875 -0.640625 
Q 12.796875 0.140625 7.71875 1.703125 
L 7.71875 11.625 
Q 12.109375 9.234375 16.796875 8.0625 
Q 21.484375 6.890625 26.703125 6.890625 
Q 35.15625 6.890625 40.078125 11.328125 
Q 45.015625 15.765625 45.015625 23.390625 
Q 45.015625 31 40.078125 35.4375 
Q 35.15625 39.890625 26.703125 39.890625 
Q 22.75 39.890625 18.8125 39.015625 
Q 14.890625 38.140625 10.796875 36.28125 
z
" id="DejaVuSans-53"/>
      </defs>
      <g transform="translate(104.553906 322.182437)scale(0.1 -0.1)">
       <use xlink:href="#DejaVuSans-53"/>
       <use x="63.623047" xlink:href="#DejaVuSans-48"/>
      </g>
     </g>
    </g>
    <g id="xtick_3">
     <g id="line2d_3">
      <g>
       <use style="stroke:#000000;stroke-width:0.8;" x="152.114957" xlink:href="#ma07d1d86d7" y="307.584"/>
      </g>
     </g>
     <g id="text_3">
      <!-- 100 -->
      <defs>
       <path d="M 12.40625 8.296875 
L 28.515625 8.296875 
L 28.515625 63.921875 
L 10.984375 60.40625 
L 10.984375 69.390625 
L 28.421875 72.90625 
L 38.28125 72.90625 
L 38.28125 8.296875 
L 54.390625 8.296875 
L 54.390625 0 
L 12.40625 0 
z
" id="DejaVuSans-49"/>
      </defs>
      <g transform="translate(142.571207 322.182437)scale(0.1 -0.1)">
       <use xlink:href="#DejaVuSans-49"/>
       <use x="63.623047" xlink:href="#DejaVuSans-48"/>
       <use x="127.246094" xlink:href="#DejaVuSans-48"/>
      </g>
     </g>
    </g>
    <g id="xtick_4">
     <g id="line2d_4">
      <g>
       <use style="stroke:#000000;stroke-width:0.8;" x="193.313507" xlink:href="#ma07d1d86d7" y="307.584"/>
      </g>
     </g>
     <g id="text_4">
      <!-- 150 -->
      <g transform="translate(183.769757 322.182437)scale(0.1 -0.1)">
       <use xlink:href="#DejaVuSans-49"/>
       <use x="63.623047" xlink:href="#DejaVuSans-53"/>
       <use x="127.246094" xlink:href="#DejaVuSans-48"/>
      </g>
     </g>
    </g>
    <g id="xtick_5">
     <g id="line2d_5">
      <g>
       <use style="stroke:#000000;stroke-width:0.8;" x="234.512058" xlink:href="#ma07d1d86d7" y="307.584"/>
      </g>
     </g>
     <g id="text_5">
      <!-- 200 -->
      <defs>
       <path d="M 19.1875 8.296875 
L 53.609375 8.296875 
L 53.609375 0 
L 7.328125 0 
L 7.328125 8.296875 
Q 12.9375 14.109375 22.625 23.890625 
Q 32.328125 33.6875 34.8125 36.53125 
Q 39.546875 41.84375 41.421875 45.53125 
Q 43.3125 49.21875 43.3125 52.78125 
Q 43.3125 58.59375 39.234375 62.25 
Q 35.15625 65.921875 28.609375 65.921875 
Q 23.96875 65.921875 18.8125 64.3125 
Q 13.671875 62.703125 7.8125 59.421875 
L 7.8125 69.390625 
Q 13.765625 71.78125 18.9375 73 
Q 24.125 74.21875 28.421875 74.21875 
Q 39.75 74.21875 46.484375 68.546875 
Q 53.21875 62.890625 53.21875 53.421875 
Q 53.21875 48.921875 51.53125 44.890625 
Q 49.859375 40.875 45.40625 35.40625 
Q 44.1875 33.984375 37.640625 27.21875 
Q 31.109375 20.453125 19.1875 8.296875 
z
" id="DejaVuSans-50"/>
      </defs>
      <g transform="translate(224.968308 322.182437)scale(0.1 -0.1)">
       <use xlink:href="#DejaVuSans-50"/>
       <use x="63.623047" xlink:href="#DejaVuSans-48"/>
       <use x="127.246094" xlink:href="#DejaVuSans-48"/>
      </g>
     </g>
    </g>
    <g id="xtick_6">
     <g id="line2d_6">
      <g>
       <use style="stroke:#000000;stroke-width:0.8;" x="275.710608" xlink:href="#ma07d1d86d7" y="307.584"/>
      </g>
     </g>
     <g id="text_6">
      <!-- 250 -->
      <g transform="translate(266.166858 322.182437)scale(0.1 -0.1)">
       <use xlink:href="#DejaVuSans-50"/>
       <use x="63.623047" xlink:href="#DejaVuSans-53"/>
       <use x="127.246094" xlink:href="#DejaVuSans-48"/>
      </g>
     </g>
    </g>
    <g id="xtick_7">
     <g id="line2d_7">
      <g>
       <use style="stroke:#000000;stroke-width:0.8;" x="316.909159" xlink:href="#ma07d1d86d7" y="307.584"/>
      </g>
     </g>
     <g id="text_7">
      <!-- 300 -->
      <defs>
       <path d="M 40.578125 39.3125 
Q 47.65625 37.796875 51.625 33 
Q 55.609375 28.21875 55.609375 21.1875 
Q 55.609375 10.40625 48.1875 4.484375 
Q 40.765625 -1.421875 27.09375 -1.421875 
Q 22.515625 -1.421875 17.65625 -0.515625 
Q 12.796875 0.390625 7.625 2.203125 
L 7.625 11.71875 
Q 11.71875 9.328125 16.59375 8.109375 
Q 21.484375 6.890625 26.8125 6.890625 
Q 36.078125 6.890625 40.9375 10.546875 
Q 45.796875 14.203125 45.796875 21.1875 
Q 45.796875 27.640625 41.28125 31.265625 
Q 36.765625 34.90625 28.71875 34.90625 
L 20.21875 34.90625 
L 20.21875 43.015625 
L 29.109375 43.015625 
Q 36.375 43.015625 40.234375 45.921875 
Q 44.09375 48.828125 44.09375 54.296875 
Q 44.09375 59.90625 40.109375 62.90625 
Q 36.140625 65.921875 28.71875 65.921875 
Q 24.65625 65.921875 20.015625 65.03125 
Q 15.375 64.15625 9.8125 62.3125 
L 9.8125 71.09375 
Q 15.4375 72.65625 20.34375 73.4375 
Q 25.25 74.21875 29.59375 74.21875 
Q 40.828125 74.21875 47.359375 69.109375 
Q 53.90625 64.015625 53.90625 55.328125 
Q 53.90625 49.265625 50.4375 45.09375 
Q 46.96875 40.921875 40.578125 39.3125 
z
" id="DejaVuSans-51"/>
      </defs>
      <g transform="translate(307.365409 322.182437)scale(0.1 -0.1)">
       <use xlink:href="#DejaVuSans-51"/>
       <use x="63.623047" xlink:href="#DejaVuSans-48"/>
       <use x="127.246094" xlink:href="#DejaVuSans-48"/>
      </g>
     </g>
    </g>
    <g id="xtick_8">
     <g id="line2d_8">
      <g>
       <use style="stroke:#000000;stroke-width:0.8;" x="358.10771" xlink:href="#ma07d1d86d7" y="307.584"/>
      </g>
     </g>
     <g id="text_8">
      <!-- 350 -->
      <g transform="translate(348.56396 322.182437)scale(0.1 -0.1)">
       <use xlink:href="#DejaVuSans-51"/>
       <use x="63.623047" xlink:href="#DejaVuSans-53"/>
       <use x="127.246094" xlink:href="#DejaVuSans-48"/>
      </g>
     </g>
    </g>
    <g id="xtick_9">
     <g id="line2d_9">
      <g>
       <use style="stroke:#000000;stroke-width:0.8;" x="399.30626" xlink:href="#ma07d1d86d7" y="307.584"/>
      </g>
     </g>
     <g id="text_9">
      <!-- 400 -->
      <defs>
       <path d="M 37.796875 64.3125 
L 12.890625 25.390625 
L 37.796875 25.390625 
z
M 35.203125 72.90625 
L 47.609375 72.90625 
L 47.609375 25.390625 
L 58.015625 25.390625 
L 58.015625 17.1875 
L 47.609375 17.1875 
L 47.609375 0 
L 37.796875 0 
L 37.796875 17.1875 
L 4.890625 17.1875 
L 4.890625 26.703125 
z
" id="DejaVuSans-52"/>
      </defs>
      <g transform="translate(389.76251 322.182437)scale(0.1 -0.1)">
       <use xlink:href="#DejaVuSans-52"/>
       <use x="63.623047" xlink:href="#DejaVuSans-48"/>
       <use x="127.246094" xlink:href="#DejaVuSans-48"/>
      </g>
     </g>
    </g>
   </g>
   <g id="matplotlib.axis_2">
    <g id="ytick_1">
     <g id="line2d_10">
      <defs>
       <path d="M 0 0 
L -3.5 0 
" id="mcc5d34bc02" style="stroke:#000000;stroke-width:0.8;"/>
      </defs>
      <g>
       <use style="stroke:#000000;stroke-width:0.8;" x="57.6" xlink:href="#mcc5d34bc02" y="303.780511"/>
      </g>
     </g>
     <g id="text_10">
      <!-- 0 -->
      <g transform="translate(44.2375 307.57973)scale(0.1 -0.1)">
       <use xlink:href="#DejaVuSans-48"/>
      </g>
     </g>
    </g>
    <g id="ytick_2">
     <g id="line2d_11">
      <g>
       <use style="stroke:#000000;stroke-width:0.8;" x="57.6" xlink:href="#mcc5d34bc02" y="271.866311"/>
      </g>
     </g>
     <g id="text_11">
      <!-- 50 -->
      <g transform="translate(37.875 275.66553)scale(0.1 -0.1)">
       <use xlink:href="#DejaVuSans-53"/>
       <use x="63.623047" xlink:href="#DejaVuSans-48"/>
      </g>
     </g>
    </g>
    <g id="ytick_3">
     <g id="line2d_12">
      <g>
       <use style="stroke:#000000;stroke-width:0.8;" x="57.6" xlink:href="#mcc5d34bc02" y="239.952111"/>
      </g>
     </g>
     <g id="text_12">
      <!-- 100 -->
      <g transform="translate(31.5125 243.751329)scale(0.1 -0.1)">
       <use xlink:href="#DejaVuSans-49"/>
       <use x="63.623047" xlink:href="#DejaVuSans-48"/>
       <use x="127.246094" xlink:href="#DejaVuSans-48"/>
      </g>
     </g>
    </g>
    <g id="ytick_4">
     <g id="line2d_13">
      <g>
       <use style="stroke:#000000;stroke-width:0.8;" x="57.6" xlink:href="#mcc5d34bc02" y="208.03791"/>
      </g>
     </g>
     <g id="text_13">
      <!-- 150 -->
      <g transform="translate(31.5125 211.837129)scale(0.1 -0.1)">
       <use xlink:href="#DejaVuSans-49"/>
       <use x="63.623047" xlink:href="#DejaVuSans-53"/>
       <use x="127.246094" xlink:href="#DejaVuSans-48"/>
      </g>
     </g>
    </g>
    <g id="ytick_5">
     <g id="line2d_14">
      <g>
       <use style="stroke:#000000;stroke-width:0.8;" x="57.6" xlink:href="#mcc5d34bc02" y="176.12371"/>
      </g>
     </g>
     <g id="text_14">
      <!-- 200 -->
      <g transform="translate(31.5125 179.922929)scale(0.1 -0.1)">
       <use xlink:href="#DejaVuSans-50"/>
       <use x="63.623047" xlink:href="#DejaVuSans-48"/>
       <use x="127.246094" xlink:href="#DejaVuSans-48"/>
      </g>
     </g>
    </g>
    <g id="ytick_6">
     <g id="line2d_15">
      <g>
       <use style="stroke:#000000;stroke-width:0.8;" x="57.6" xlink:href="#mcc5d34bc02" y="144.20951"/>
      </g>
     </g>
     <g id="text_15">
      <!-- 250 -->
      <g transform="translate(31.5125 148.008728)scale(0.1 -0.1)">
       <use xlink:href="#DejaVuSans-50"/>
       <use x="63.623047" xlink:href="#DejaVuSans-53"/>
       <use x="127.246094" xlink:href="#DejaVuSans-48"/>
      </g>
     </g>
    </g>
    <g id="ytick_7">
     <g id="line2d_16">
      <g>
       <use style="stroke:#000000;stroke-width:0.8;" x="57.6" xlink:href="#mcc5d34bc02" y="112.295309"/>
      </g>
     </g>
     <g id="text_16">
      <!-- 300 -->
      <g transform="translate(31.5125 116.094528)scale(0.1 -0.1)">
       <use xlink:href="#DejaVuSans-51"/>
       <use x="63.623047" xlink:href="#DejaVuSans-48"/>
       <use x="127.246094" xlink:href="#DejaVuSans-48"/>
      </g>
     </g>
    </g>
    <g id="ytick_8">
     <g id="line2d_17">
      <g>
       <use style="stroke:#000000;stroke-width:0.8;" x="57.6" xlink:href="#mcc5d34bc02" y="80.381109"/>
      </g>
     </g>
     <g id="text_17">
      <!-- 350 -->
      <g transform="translate(31.5125 84.180328)scale(0.1 -0.1)">
       <use xlink:href="#DejaVuSans-51"/>
       <use x="63.623047" xlink:href="#DejaVuSans-53"/>
       <use x="127.246094" xlink:href="#DejaVuSans-48"/>
      </g>
     </g>
    </g>
    <g id="ytick_9">
     <g id="line2d_18">
      <g>
       <use style="stroke:#000000;stroke-width:0.8;" x="57.6" xlink:href="#mcc5d34bc02" y="48.466909"/>
      </g>
     </g>
     <g id="text_18">
      <!-- 400 -->
      <g transform="translate(31.5125 52.266128)scale(0.1 -0.1)">
       <use xlink:href="#DejaVuSans-52"/>
       <use x="63.623047" xlink:href="#DejaVuSans-48"/>
       <use x="127.246094" xlink:href="#DejaVuSans-48"/>
      </g>
     </g>
    </g>
   </g>
   <g id="patch_3">
    <path d="M 57.6 307.584 
L 57.6 41.472 
" style="fill:none;stroke:#000000;stroke-linecap:square;stroke-linejoin:miter;stroke-width:0.8;"/>
   </g>
   <g id="patch_4">
    <path d="M 414.72 307.584 
L 414.72 41.472 
" style="fill:none;stroke:#000000;stroke-linecap:square;stroke-linejoin:miter;stroke-width:0.8;"/>
   </g>
   <g id="patch_5">
    <path d="M 57.6 307.584 
L 414.72 307.584 
" style="fill:none;stroke:#000000;stroke-linecap:square;stroke-linejoin:miter;stroke-width:0.8;"/>
   </g>
   <g id="patch_6">
    <path d="M 57.6 41.472 
L 414.72 41.472 
" style="fill:none;stroke:#000000;stroke-linecap:square;stroke-linejoin:miter;stroke-width:0.8;"/>
   </g>
  </g>
 </g>
 <defs>
  <clipPath id="p6c74630068">
   <rect height="266.112" width="357.12" x="57.6" y="41.472"/>
  </clipPath>
 </defs>
</svg>
